<?xml version="1.0" standalone="no"?><!DOCTYPE svg PUBLIC "-//W3C//DTD SVG 1.1//EN" "http://www.w3.org/Graphics/SVG/1.1/DTD/svg11.dtd"><svg t="1653670510601" class="icon" viewBox="0 0 1024 1024" version="1.1" xmlns="http://www.w3.org/2000/svg" p-id="2814" xmlns:xlink="http://www.w3.org/1999/xlink" width="200" height="200"><defs><style type="text/css">@font-face { font-family: feedback-iconfont; src: url("//at.alicdn.com/t/font_1031158_u69w8yhxdu.woff2?t=1630033759944") format("woff2"), url("//at.alicdn.com/t/font_1031158_u69w8yhxdu.woff?t=1630033759944") format("woff"), url("//at.alicdn.com/t/font_1031158_u69w8yhxdu.ttf?t=1630033759944") format("truetype"); }
</style></defs><path d="M430.5 494.8h-81.3V247.4c0-89.6 72.9-162.5 162.5-162.5h365.4c44.8 0 81.3 36.4 81.3 81.3v81.6c0 89.6-72.9 162.5-162.5 162.5H512.3V329h283.6c44.8 0 81.3-36.4 81.3-81.3v-81.6H511.7c-44.8 0-81.3 36.4-81.3 81.3l0.1 247.4z" fill="#66B2F6" p-id="2815"></path><path d="M734.5 735.9H328.2c-78.4 0-142.2-63.8-142.2-142.2s63.8-142.2 142.2-142.2h406.3c78.4 0 142.2 63.8 142.2 142.2s-63.8 142.2-142.2 142.2zM328.2 532.8c-33.6 0-60.9 27.3-60.9 60.9 0 33.6 27.3 60.9 60.9 60.9h406.3c33.6 0 60.9-27.3 60.9-60.9 0-33.6-27.3-60.9-60.9-60.9H328.2zM64.1 857.8h243.8v81.3H64.1z" fill="#66B2F6" p-id="2816"></path><path d="M815.8 939.1H247c-78.4 0-142.2-63.8-142.2-142.2S168.6 654.7 247 654.7h568.8c78.4 0 142.2 63.8 142.2 142.2s-63.8 142.2-142.2 142.2zM247 735.9c-33.6 0-60.9 27.3-60.9 60.9s27.3 60.9 60.9 60.9h568.8c33.6 0 60.9-27.3 60.9-60.9s-27.3-60.9-60.9-60.9H247z" fill="#66B2F6" p-id="2817"></path><path d="M714.2 248.4m-40.6 0a40.6 40.6 0 1 0 81.2 0 40.6 40.6 0 1 0-81.2 0Z" fill="#7EDBFE" p-id="2818"></path></svg>
